<!DOCTYPE svg PUBLIC "-//W3C//DTD SVG 1.1//EN" "http://www.w3.org/Graphics/SVG/1.1/DTD/svg11.dtd">
<!-- Uploaded to: SVG Repo, www.svgrepo.com, Transformed by: SVG Repo Mixer Tools -->
<svg width="256px" height="256px" viewBox="-0.72 -0.72 25.44 25.44" fill="none" xmlns="http://www.w3.org/2000/svg">
<g id="SVGRepo_bgCarrier" stroke-width="0"/>
<g id="SVGRepo_tracerCarrier" stroke-linecap="round" stroke-linejoin="round"/>
<g id="SVGRepo_iconCarrier"> <circle cx="12" cy="13" r="4" fill="#5D7285"/> <path d="M12 9V7M12 4V7M12 7L9 5M12 7L15 5" stroke="#5D7285" stroke-width="2" stroke-linecap="round"/> <path d="M15.5 12.5L17.5 12.5M20.5 12.5L17.5 12.5M17.5 12.5L19.5 9.5M17.5 12.5L19.5 15.5" stroke="#5D7285" stroke-width="2" stroke-linecap="round"/> <path d="M12 16V18M12 21V18M12 18L9 20M12 18L15 20" stroke="#5D7285" stroke-width="2" stroke-linecap="round"/> <path d="M8.5 12.5L6.5 12.5M3.5 12.5L6.5 12.5M6.5 12.5L4.5 9.5M6.5 12.5L4.5 15.5" stroke="#5D7285" stroke-width="2" stroke-linecap="round"/> </g>
</svg>