<!DOCTYPE svg PUBLIC "-//W3C//DTD SVG 1.1//EN" "http://www.w3.org/Graphics/SVG/1.1/DTD/svg11.dtd">
<!-- Uploaded to: SVG Repo, www.svgrepo.com, Transformed by: SVG Repo Mixer Tools -->
<svg fill="#5D7285" width="256px" height="256px" viewBox="-0.72 -0.72 25.44 25.44" xmlns="http://www.w3.org/2000/svg">
<g id="SVGRepo_bgCarrier" stroke-width="0"/>
<g id="SVGRepo_tracerCarrier" stroke-linecap="round" stroke-linejoin="round"/>
<g id="SVGRepo_iconCarrier">
<path d="M5,21H19a2,2,0,0,0,2-2V6a3,3,0,0,0-3-3H6A3,3,0,0,0,3,6V19A2,2,0,0,0,5,21ZM5,6A1,1,0,0,1,6,5H18a1,1,0,0,1,1,1v5.5a.5.5,0,0,1-.5.5H15.471a.492.492,0,0,0-.5.407,3,3,0,0,1-5.946,0,.492.492,0,0,0-.5-.407H5.5a.5.5,0,0,1-.5-.5Z"/>
</g>
</svg>