<?xml version="1.0" encoding="UTF-8"?>
<svg version="1.1" viewBox="0 0 888 832" width="1280" height="1280" xmlns="http://www.w3.org/2000/svg">
<path transform="translate(0)" d="m0 0h888v832h-888z" fill="#E1E1E1"/>
<path transform="translate(0)" d="m0 0h369l-1 16-3 15-5 16-4 5-5 14 1 7 7 9 6 10 7 10 5 12 2 5 3 13 9 17 5 6 8 4 7 4 5 5 4 7 1 5v15l-2 35-4 26-9 46-7 30-4 16-9 34-8 21-10 20-14 24-13 23-10 16-9 10-9 8-18 11-5 2h-7l-18-6-32-7h-20l-23 5-19 7-15 8-10 8-6 9-3 8-2 37-2 7-3 2-1 13v31l-1 16 4 11 7 11 8 10 6 8 8 7 11 11 11 9 16 13 11 9 3 2v2l4 2 6 5v2l4 2 7 8 6 8 6 11 4 20 4 26h-254z" fill="#A1CAFD"/>
<path transform="translate(369)" d="m0 0h519v126l-3 1-1 3-6 3-5 5-12 11-11 9-11 10-14 11-14 12-40 30-19 14-23 16-17 12-24 18-28 22-17 14-11 9-10 9-28 22-5 3-9 7-16 11-13 8-11 7-14 12-15 12h-2v2l-11 9-10 8-13 11-14 11-14 12-18 13-17 16-8 8-8 7-9 9-1 2h-2l-2 4-11 15-11 16-12 17-11 18-9 19-12 36-4 15-4 22-2 19-1 21v37l2 44 2 17v7h-55l-2-6-5-32-3-10-7-12-9-10-5-5v-2l-4-2-6-5v-2l-4-2-11-9-16-13-14-12-18-18-8-10-9-12-5-11-1-10 1-10v-38l2-7 3-2 1-6 2-37 4-10 8-10 10-7 16-8 16-6 23-5h20l32 7 18 6h7l14-7 11-8 10-9 7-9 13-22 15-26 12-22 7-15 7-19 17-68 5-24 7-36 3-21 2-35v-15l-3-9-2-5-4-2-7-4-9-5-8-11-7-15-3-12-5-13-7-11-6-9-7-10-2-3 1-8 5-12 3-4 3-10 3-12 2-9z" fill="#E0E0E0"/>
<path transform="translate(732)" d="m0 0h156v126l-3 1-1 3-6 3-5 5-12 11-11 9-11 10-14 11-14 12-40 30-19 14-23 16-17 12-24 18-28 22-17 14-11 9-10 9-28 22h-5l-2-4-6-2-10-4-15-8-17-8-20-7-11-6-6-5-6-11-3-13-2-11-3-2-8-2v-2l-15-6v-2l-9-3-14-4-10-10-1-5 2-3 2-1 1-5 6-2 2 3 11 6 16 7 4 1h11l15-4 12-5 12-6h2l1-3 16-9 8-5 8-2 4-2 5-5 15-10 11-7 4-3h2v-2l8-4 1-2h2l2-7 3-8 5-18 9-27 3-10 6-11 4-2 3-5 7-6 2-3h2l2-4 7-6 6-8 8-17 6-9 7-4h6l2 1-2-4 1-5 8-7 8-6 1-2h2l2-5 6-4h4z" fill="#CDE6A4"/>
<path transform="translate(369)" d="m0 0h334l-4 6-9 10-14 15-11 12-8 7-34 34-6 8-2 4-2 1-3 12-5 16-3 9-7 16-7 12-12 13-10 9-11 8-5 5h-3l-2 4-12 6-11 7-5 3h-4v2l-10 2v2l-6 2h-12l-10-5v-2l-9-3-12-5-10-6v-2l-5-2-14-8-3-4-2-15-1-3-4-2v-2l-4-2-7-4-9-5-8-11-7-15-3-12-5-13-7-11-6-9-7-10-2-3 1-8 5-12 3-4 3-10 3-12 2-9z" fill="#CDE6A4"/>
<path transform="translate(887,126)" d="m0 0h1v60l-10 8-11 10-36 26-19 13-15 11-14 11-13 10h-2v2l-11 9-3 5 5-3h2l-1 3-14 10-3 2v-3l-10 4-17 13-14 10-16 13-8 7-2 3h-2l-1 7-6 4-7 6-12 11-4 1-5 4h-4v2l-14 8-10 8-5 3-4 5h-2l1 3 5-2 4-1-5 5-12 10-14 11-16 13-14 10-16 11-13 10-9 6-8 2-10 6-9 10-5 6h-2l-1 4-9 8-11 9-9 9-8 7-8 8-8 7-10 10-9 13-12 21-9 19-6 15-6 17-5 16-5 30-2 19v51l4 51 1 9h-55l-3-24-2-44v-37l1-21 3-25 5-25 12-37 7-16 9-17 13-19 13-18 7-11 9-11 1-2h2l2-4 14-14 8-7 11-11 8-7 18-13 10-9 17-13 11-10 14-11 8-7h2v-2l9-7 16-13 9-7 13-8 11-7 17-12 7-6 7-4 11-9 16-13 14-12 17-14 14-11 18-14 13-10 18-13 20-14 17-12 19-14 13-10 12-9 13-10 13-11 10-8 14-12 15-13 9-8h2l2-4 6-3z" fill="#FDEFBF"/>
<path transform="translate(886,239)" d="m0 0h2v355l-5-5-10-12-8-11-12-16-2-5h-2l-7-8-11-13-4-5v-2l-3-1-5-6v-2l-4-2v-2l-3-1-5-6-8-7-4-5-8-7v-2h-2l-7-8-11-15-3-7-2-10-2-28v-8l2-5 9-3 12-3 3-2-2-13-8-16-5-8-5-6v-2h-2l-7-10 1-4 5-4 9-6 12-11 12-9 12-8 11-5 10-6 9-6 10-8h2v-2l14-10 6-4 9-7 6-2z" fill="#CDE5A4"/>
<path transform="translate(703)" d="m0 0h29v2l-8 3-4 6h-2l-2 4-12 9-3 3 1 8h-8l-8 5-8 15-6 12-10 11-6 5-3 4h-2l-2 4h-2l-2 5-2 2h-3l-1 4-6 12-5 17-5 15-7 25-4 8h-2l-2 4-7 2v2l-9 6-14 9-12 8-4 4-4 2-8 2-13 8-9 5-3 3-21 10-13 4-5 1h-11l-14-5-14-8-5-3-1-1-4 1-1 5-1 3v-2h-2l-1 5 3 5 7 6v2l7 1 3 2-9-1-20-7-1-1-1-15-2-2v-19l1-20v-15l-3-11 3 1 2 8 1 10 4 4 17 10v2l5 2 9 5 13 5 4 2v2l6 2 4 2h12l6-1v-2l10-2v-2l7-3 12-7 10-6 4-2 1-2h3l2-4 19-14 12-12 9-13 7-15 4-13 4-10 4-13 2-7h2l2-6 14-15 32-32 8-7 7-8 16-17z" fill="#E0E2DF"/>
<path transform="translate(608,151)" d="m0 0 2 2 1 4-3 4-1 2 2 6-10 13 1 2 10-9 5-7 1 3-4 8h-2l-2 4-7 2v2l-9 6-14 9-12 8-4 4-4 2-8 2-13 8-9 5-3 3-21 10-13 4-5 1h-11l-14-5-14-8-5-3-1-1-4 1-1 5-1 3v-2h-2l-1 5 3 5 7 6v2l7 1 3 2-9-1-20-7-1-1-1-15-2-2v-19l1-20v-15l-3-11 3 1 2 8 1 10 4 4 17 10-3 1-5-1-1 4 5 4 4 5 6 4 5 6 9 6 12 5 5 1h8l17-5 28-13 16-9 19-13 20-15v-5l10-11 2-4h2l3-10z" fill="#CFE9CA"/>
<path transform="translate(703)" d="m0 0h29v2l-8 3-4 6h-2l-2 4-12 9-3 3 1 8h-8l-8 5-8 15-6 12-10 11-6 5-3 4h-2l-2 4h-2l-2 5-2 2h-3l-1 4-6 12-3 10h-3v-3h-2l-1-3-4 4-1-2-2 10h-1l-3 12-2 1-1-6v-1l-6 21h-2l2-8h-1l1-8 3-7 2-14 3-3 1 5 2-5h3l-1-3 5-13 3-3 8-12v-3l6-7 4-4h2v-2l8-7 2-4 1-4-3-2 10-10 8-7 7-8 16-17z" fill="#D0E8CD"/>
<path transform="translate(886,239)" d="m0 0h2v11l-11 4-5 1-1 3h-2l-1 3-7 4-6 4-4 4-5 4-3 3-4 1-1 3-4 4-5 1-1 3-14 7-4 3h-6l-2 1 1 2h-2l-2 4-4 6-4 2-4 10-4 8-2 3 1 3-4 6 1 6 5 16 6 9 1 8-5 4-3-1 3-2-2-13-8-16-5-8-5-6v-2h-2l-7-10 1-4 5-4 9-6 12-11 12-9 12-8 11-5 10-6 9-6 10-8h2v-2l14-10 6-4 9-7 6-2z" fill="#D5E4B2"/>
<path transform="translate(364)" d="m0 0h5l-1 16-3 15-5 16-4 5-5 14 1 7 7 9 6 10 7 10 5 12 2 5 3 13 9 17 5 6 8 4 7 4 5 5 4 7 1 5v15l-2 35-1 7h-1v-15l1-17v-19l-4-4-5-8-5-4-8-10-7-4-6-9-11-20-8-16-2-7-4-1-21-1-7-3-1-5 6-6 11-3 4-7-2-6 1-8 5-14 5-10-1-6 3-2 2-9 2-6v-7l-2-9z" fill="#AFD0EA"/>
<path transform="translate(417,169)" d="m0 0 3 1 2 8 1 10 4 4 17 10-3 1-5-1-1 4 5 4 4 5 6 4 5 6 9 6-1 2-6-1-2-1h-8l-1 4-4-2-1-1-4 1-1 5-1 3v-2h-2l-1 5 3 5 7 6v2l7 1 3 2-9-1-20-7-1-1-1-15-2-2v-19l1-20v-15z" fill="#CBE9B4"/>
<path transform="translate(780,390)" d="m0 0h3v2l-5 1v9h-2l2 11v16l2 7v13l2 1 2 17 4 6 3 3v2h2l5 6 2 4 5 5 2 3-4-2-8-9-8-7v-2h-2l-7-8-11-15-3-7-2-10-2-28v-8l2-5 9-3z" fill="#D4E4B3"/>
<path transform="translate(550,196)" d="m0 0 4 1-2 6-4 4-13 8-16 8-22 10-6 2h-14l-14-7-7-5-9-5-7-6-5-5-1-2 2-4 5 1 12 6 5 3 13 5 4 2v2l6 2 4 2h12l6-1v-2l10-2v-2l7-3 12-7 10-6 4-2 1-2z" fill="#DFE1DF"/>
<path transform="translate(417,246)" d="m0 0 3 2v24l-6 28-9 35-14 51-5 16-4 8-5 5h-2l1-10 8-20 7-26 12-48 5-24 8-40z" fill="#F0F2EC"/>
<path transform="translate(886,186)" d="m0 0h2v8l-11 9-9 8h-2v2l-36 26-16 12-10 7-13 9h-2l-1 3-11 8-10 7-4 3-9 3 1-4 11-10h2v-2l9-6 7-6 13-10 15-11 19-13 18-13 19-14 13-12z" fill="#F2F4ED"/>
<path transform="translate(838)" d="m0 0h50v42l-4-2-7-8-5-5-7-8-9-7-10-7-7-3z" fill="#CFE9CC"/>
<path transform="translate(703)" d="m0 0h29v2l-8 3-4 6h-2l-2 4-12 9-3 3 1 8h-8l-9 5-1-2 3-5-6 4-5 5-2-2 4-6 3-6 3-4 2-5 10-10z" fill="#D2DFC2"/>
<path transform="translate(623,116)" d="m0 0 1 2 2 1-1 2 4 1-1 9-5 15-6 22h-2l-2 4-9 10-5 3v-4l9-12-2-7 4-6-2-6 2-2-1-2 1-6 2 2 2-6 1-7 2-4 2-7 2 2z" fill="#DFE1E0"/>
<path transform="translate(608,151)" d="m0 0 2 2 1 4-3 4-1 2 2 6-10 13 1 2 10-9 5-7 1 3-4 8h-2l-2 4-7 2v2l-9 6-14 9-12 8-4 4-4 2-4-1 19-12 1-4-3-1 3-1v-2l8-8 7-5v-5l10-11 2-4h2l3-10z" fill="#CFE9CC"/>
<path transform="translate(732)" d="m0 0h5l-1 2h-2l-2 7-9 10-7 10-2 3h-2v2h-2v2l-7 4-6 1h-9v2h-2l-2 6-5 7-2 7-2 4-6 5v-3l4-5 8-17 6-9 7-4h6l2 1-2-4 1-5 8-7 8-6 1-2h2l2-5 6-4h4z" fill="#CBE8B3"/>
<path transform="translate(382,389)" d="m0 0 1 2-8 18-12 23-28 48-8 11-9 9-5 4h-2l1-6 9-10 3-4h2l2-4h2l2-4h2l1-4 4-10 2-3h2l2-5h2v-2h2l3-10 4-9h2l3-9 7-16 7-12 5-4z" fill="#A2C2E7"/>
<path transform="translate(417,169)" d="m0 0 3 1 2 8 1 10 4 4 17 10-3 1-5-1-1 4 5 5-1 2-9 1-5 8-1 25 1 3 17 6 10 3v1l-9-1-20-7-1-1-1-15-2-2v-19l1-20v-15z" fill="#CFE8CB"/>
<path transform="translate(369)" d="m0 0h4v26l-3 4-6 17-8 11-3 6v6l11 15 5 5 3 7 5 9 2 10 6 19 8 14 7 6 14 8 3 4-1 2-1-3-4-2-7-4-9-5-8-11-7-15-3-12-5-13-7-11-6-9-7-10-2-3 1-8 5-12 3-4 3-10 3-12 2-9z" fill="#CFE9CC"/>
<path transform="translate(493,281)" d="m0 0 2 2 2 11 8 9 1 3 5 2 7 1 2 1 1 4 5 1 1 5 7 2 6 4 5 4 16 8 14 8v2l-4-1-15-8-17-8-20-7-11-6-6-5-6-11-3-13z" fill="#D4E4B3"/>
<path transform="translate(373,12)" d="m0 0 2 2 1 10-1 3h-2l-1 6v8l-4 8-7 8 2 6 4 13 2 5 5 8 4 13 2 4v12l-2-2-3-12-5-8-3-9-4-2-11-15v-6l5-9 6-8 4-12 4-8 1-1z" fill="#CBE8B3"/>
<path transform="translate(588,178)" d="m0 0 2 4-14 11-17 12-21 13-23 11-15 6-11 3h-8l-9-3-9-4-10-7-3-4 6 2 14 9 7 3h14l15-6 24-11 15-9 16-10 20-15h2v-2l5-1z" fill="#A2C2E6"/>
<path transform="translate(743,299)" d="m0 0 2 1-2 4-4 1v2l-19 14-30 23-11 8-5 4-2-1 2-5h2l2-4 11-10 13-10 19-14 14-10z" fill="#F2F4ED"/>
<path transform="translate(652,54)" d="m0 0h5l-1 7-9 9h-2v2h-2l-1 3-2-1-5 5-6 7-3 5-2 1-5 13-2 1-3 10-2-1 1-2-2-1 2-4 2-10h-2l-1 2 1-4h2l2-6 14-15z" fill="#DFE1DF"/>
<path transform="translate(576,192)" d="m0 0 2 1-4 2v2l-2 1 2 1-1 5-21 13-25 15-4 1-1-4 4-4 10-5 5-5 18-11 11-8z" fill="#EDF0E9"/>
<path transform="translate(633,90)" d="m0 0 1 2-7 14-2 10h-2l-2 6-2-2-2 10h-1l-3 12-2 1-1-6v-1l-6 21h-2l2-8h-1l1-8 3-7 2-14 3-3 1 5 2-5h3l-1-3 5-13 3-3 6-7z" fill="#D2E7D1"/>
<path transform="translate(703)" d="m0 0h29v2l-8 3-4 5-5 1 2-5 1-3-8 7-11 12-1-3-7-1-6 4 2-4 9-9z" fill="#CFE9CD"/>
<path transform="translate(91,516)" d="m0 0 3 1-1 13-3 3-3 14 3 1v11l-1 1-7-1-1-3v-33h2v-3l4-2h4z" fill="#E1E1E1"/>
<path transform="translate(762,395)" d="m0 0 2 1 1 6 4 26v9l3 17 5 9 3 4-1 2-12-16-3-7-2-10-2-28v-8z" fill="#D3DEC3"/>
<path transform="translate(867)" d="m0 0h21v23l-7-4-5-4-5-7v-2h-2v-2h-2z" fill="#D3DEC3"/>
<path transform="translate(361,433)" d="m0 0 3 1-1 6-3 7-4 10-6 12-7 8-6 3 2-6 4-9 14-25z" fill="#F0F2EC"/>
<path transform="translate(887,115)" d="m0 0h1v11l-3 1-1 3-6 3-5 5-12 11-11 9-11 10-6 5-2-1 5-6 4-4h2v-2h2l2-4h2v-2l11-9 9-8 6-5 3-6 3-2 3-5z" fill="#D5E5B2"/>
<path transform="translate(550,196)" d="m0 0 4 1-2 6-4 4-13 8-7 4-9 1v-5l18-11 9-5 1-2z" fill="#EEF1EA"/>
<path transform="translate(879,242)" d="m0 0 2 2-8 6-9 7-11 9-15 12-10 6-24 12-15 10h-3l10-8 12-8 11-5 10-6 9-6 10-8h2v-2l14-10 6-4z" fill="#D3DEC3"/>
<path transform="translate(369)" d="m0 0h4v26l-3 4-6 17-5 5-4 3 1-4 3-4 3-10 3-12 2-9z" fill="#D0E8CE"/>
<path transform="translate(139,497)" d="m0 0h12l1 3v9l-4 6-4 2-5-3-2-2v-13z" fill="#F0F3EC"/>
<path transform="translate(645,377)" d="m0 0 2 1-10 9-11 9-15 13-10 4-1-4 5-5 11-8 10-7 7-4h2v-2l7-3z" fill="#F2F4EC"/>
<path transform="translate(332,487)" d="m0 0 2 1-1 5-6 10-10 7-6 3h-2v-2h-3l2-5 11-8 9-9z" fill="#F0F3EC"/>
<path transform="translate(827,517)" d="m0 0 6 5v2h2l9 11 9 10 9 12 4 6 5 4 4 6 8 10 5 3v8l-5-5-10-12-8-11-12-16-2-5h-2l-7-8-11-13-4-5z" fill="#D3DEC3"/>
<path transform="translate(364)" d="m0 0h5l-1 16-3 15-5 16-4 5-5 14v7l-3-1 1-8 5-14 5-10-1-6 3-2 2-9 2-6v-7l-2-9z" fill="#B0D1EB"/>
<path transform="translate(691,17)" d="m0 0 8 1-2 5-9 9-8 6-4 4-2-2 4-6 3-6 7-9z" fill="#E0E1E0"/>
<path transform="translate(173,487)" d="m0 0h10l4 4-1 5-6 3h-9l-1-3v-7z" fill="#E1E1E1"/>
<path transform="translate(505,485)" d="m0 0h6l-4 4-12 9-11 9-5 4h-2v-2h2l2-4h2l2-4 7-8 9-6z" fill="#F2F5EE"/>
<path transform="translate(608,151)" d="m0 0 2 2 1 4-3 4-7 11-9 9-3-1 1-4 9-10 2-4h2l3-10z" fill="#CDE6A4"/>
<path transform="translate(640,72)" d="m0 0 1 4-6 5-2 3 1 2-10 15h-2l-1 6-3 7v3h-2l1-8 4-12 3-6h2l2-5 9-11z" fill="#ADCDEA"/>
<path transform="translate(623,86)" d="m0 0h3l-3 10-4 9-2 1-3 10-2-1 1-2-2-1 2-4 2-10h-2l-1 2 1-4h2l2-6z" fill="#D0E9CE"/>
<path transform="translate(623,116)" d="m0 0 1 3-8 24h-2l-2 11-2 2-2-6 2-2-1-2 1-6 2 2 2-6 1-7 2-4 2-7 2 2z" fill="#AACAE8"/>
<path transform="translate(670,49)" d="m0 0 3 1-2 4-7 8-12 13h-3v-3l9-10 7-8z" fill="#A2C1E5"/>
<path transform="translate(376,111)" d="m0 0 2 2 4 12 3 10 8 14 7 6 14 8 3 4-1 2-1-3-4-2-7-4-9-5-8-11-7-15-3-12z" fill="#D0E9CE"/>
<path transform="translate(438,211)" d="m0 0 4 2 8 6 5 6 9 6-1 2-6-1-9-4-3-7-2-4z" fill="#CDE5A5"/>
<path transform="translate(576,192)" d="m0 0 2 1-4 2v2l-2 1 2 1-1 5-12 7-2-5 1-3 10-7z" fill="#E1E2DF"/>
<path transform="translate(91,516)" d="m0 0 3 1-1 13-4 5h-2l-2-5 1-8h-3v-2l4-2h4z" fill="#ADCFEE"/>
<path transform="translate(369,84)" d="m0 0 5 5 4 13 2 4v12l-2-2-3-12-5-8-3-7v-4z" fill="#D4E5B2"/>
<path transform="translate(66,554)" d="m0 0h3l1 2 4 2-1 7-3 2h-7l-1-6z" fill="#B0D1EB"/>
<path transform="translate(304,507)" d="m0 0 3 1-14 8-3 1h-7l-9-3v-1l15-2h9l1-3z" fill="#A2C2E7"/>
<path transform="translate(611,117)" d="m0 0 2 1-1 9-2 9-6 21h-2l2-8h-1l1-8 3-7 2-14z" fill="#CFE9CD"/>
<path transform="translate(427,238)" d="m0 0 2 1 1 4 2 1 3 5 7 6-4 1-13-5-1-1v-7l2-1z" fill="#CCE8B3"/>
<path transform="translate(369)" d="m0 0h3v10l-1 14-3 4h-2l-1 2 1-10z" fill="#E1E1E1"/>
<path transform="translate(867,564)" d="m0 0 5 5 9 11 4 4 3 2v8l-5-5-10-12-5-10z" fill="#D4E2B7"/>
<path transform="translate(644,78)" d="m0 0m-1 2 1 2 2 1-2 3h-2l-2 5h-2l-2 4-5 7-5 11-1-4 4-10 3-5z" fill="#CDE5A7"/>
<path transform="translate(82,545)" d="m0 0 1 4 2-1 2-3v2l3 1v11l-1 1-7-1-1-3z" fill="#B0D1EB"/>
<path transform="translate(499,306)" d="m0 0 5 5 7 6 22 9 11 5-3 1-18-7-8-3-10-6-6-8z" fill="#D3DEC3"/>
<path transform="translate(691,37)" d="m0 0 3 3-6 1v2h-2l-2 6-5 7-2 7-2 4-6 5v-3l4-5 8-17 5-8z" fill="#D1E6B2"/>
<path transform="translate(139,497)" d="m0 0h12l1 3v9l-2 2-1-8-2-2-5 1-4 1v9h-1v-13z" fill="#E1E1E1"/>
<path transform="translate(615,117)" d="m0 0h2l1 8-1 5h-1l-3 12-2 1-1-6 1-9 2-1 1-9z" fill="#CDE7D0"/>
<path transform="translate(450,220)" d="m0 0 6 2 14 9 7 3 10 1v1l-11 1-13-6-10-7z" fill="#A2C2E7"/>
<path transform="translate(546,331)" d="m0 0 5 2 23 12 1 3-4-1-15-8-10-5z" fill="#D3E1BA"/>
<path transform="translate(780,364)" d="m0 0 3 3 7 11 1 8-5 4-3-1 3-2-2-13-4-8z" fill="#D2DFC3"/>
<path transform="translate(719)" d="m0 0h13v2l-8 3-4 5-5 1 2-5z" fill="#CFE7CA"/>
<path transform="translate(615,129)" d="m0 0 2 1-1 9v4h-2l-2 11-2 2-2-6 2-2-1-2 1-6 2 2 2-6z" fill="#A2C2E7"/>
<path transform="translate(712,12)" d="m0 0v3l-4 6-7 6-3 3h-3l2-4 5-6z" fill="#CFE8CB"/>
<path transform="translate(364,86)" d="m0 0 3 1 3 5 2 5 5 9v5h-2l-7-14-3-7z" fill="#D1E1C5"/>
<path transform="translate(614,143)" d="m0 0h2l1 6-2 6 1 4-3 6-3-4 2-5 1-10z" fill="#D0E9CE"/>
<path transform="translate(868,22)" d="m0 0 5 5 1 3 4 2 7 8 3 2-1 4-4-4-1-3-8-7-5-6z" fill="#CBE9B4"/>
<path transform="translate(177,506)" d="m0 0 10 3-3 2-10 4-3-1 3-2 2-5z" fill="#A4C4E8"/>
<path transform="translate(885,822)" d="m0 0h3v10h-6l1-9z" fill="#F2F5EE"/>
<path transform="translate(611,128)" d="m0 0h1l-1 9-1 10v3h-2l-1 3-2-2 4-16z" fill="#DBE6DD"/>
<path transform="translate(87,549)" d="m0 0h3v10l-5 1v-2h-2l2-4z" fill="#E1E1E1"/>
<path transform="translate(477,220)" d="m0 0 12 2h14l-2 2-4 1h-12l-8-4z" fill="#D0E7C5"/>
<path transform="translate(464,232)" d="m0 0 6 1 6 3 11 2v1h-11l-10-4v-2z" fill="#CDE6A6"/>
<path transform="translate(623,95)" d="m0 0 1 2-3 10-3 7v3h-2l1-8 4-12z" fill="#A7C8E8"/>
<path transform="translate(611,100)" d="m0 0 1 3-7 22-1-4 2-9z" fill="#D1E3C4"/>
<path transform="translate(571,204)" d="m0 0v3l-5 3-4 4-4 2-4-1z" fill="#CDE9C5"/>
<path transform="translate(546,331)" d="m0 0 5 2 9 5-2 1-9-3-3-2z" fill="#D4E2B8"/>
<path transform="translate(615,168)" d="m0 0 1 3-4 8h-2l-2 4-4 1 6-7 2-5z" fill="#CCE8B9"/>
<path transform="translate(400,157)" d="m0 0 6 1 9 6 2 5-2-1v-2l-4-2-7-4-4-2z" fill="#D9E3D5"/>
<path transform="translate(608,151)" d="m0 0 2 2 1 4-3 4-3-3 1-6z" fill="#CEE5AF"/>
<path transform="translate(780,273)" d="m0 0 2 1-10 8-5 3-2-1z" fill="#FEEFBF"/>
<path transform="translate(470,232)" d="m0 0 5 1 2 1 10 1v1l-11 1-6-3z" fill="#A5C5E8"/>
<path transform="translate(92,516)" d="m0 0 2 1-1 12-3-1v-6z" fill="#E1E1E1"/>
<path transform="translate(415,238)" d="m0 0 2 1-1 12h-2v-11z" fill="#A5C5E8"/>
<path transform="translate(304,507)" d="m0 0 3 1-10 6-2-1 4-5z" fill="#A5C5E8"/>
<path transform="translate(417,169)" d="m0 0 3 1 2 8v10h-1l-3-16z" fill="#D2E5CD"/>
<path transform="translate(640,72)" d="m0 0 1 4-6 5-3 3v-3z" fill="#B0D1EB"/>
<path transform="translate(349,73)" d="m0 0 4 1 2 2 2 7-3-1-3-5z" fill="#A4C4E8"/>
<path transform="translate(427,238)" d="m0 0 2 1 1 7-2 2-3-3z" fill="#CCE6A4"/>
<path transform="translate(491,234)" d="m0 0 2 1-1 2-3 1h-8v-2z" fill="#A0C0E7"/>
</svg>
