<?xml version="1.0" encoding="UTF-8"?>
<svg version="1.1" viewBox="0 0 888 832" width="1280" height="1280" xmlns="http://www.w3.org/2000/svg">
<path transform="translate(0)" d="m0 0h888v832h-888z" fill="#E1E1E1"/>
<path transform="translate(0)" d="m0 0h369l-1 16-4 17-6 17h-2l-2 8-3 8 1 7 7 9 4 8 8 10 5 11 3 8 2 10 5 12 8 12 5 4 10 5 7 6 4 8 1 5v14l-2 34-4 27-9 46-6 25-9 36-6 22-8 20-13 25-14 24-15 26-9 12-8 8-14 10-14 7h-7l-18-6-32-7h-21l-22 5-12 4-19 9-12 9-6 8-4 10-2 37-3 8-3 1v43l-1 15 4 13 7 11 6 8 8 10 8 7 5 6 11 9 4 3v2l4 2 14 11 10 8v2l5 2v2l4 1 1 3h2v2h2v2h2l7 8 7 9 6 10 4 16 4 27 1 5h-254z" fill="#A1C9FD"/>
<path transform="translate(369)" d="m0 0h519v128l-6 3-5 4h-2v2l-8 6h-2l-2 4-3 1-1 3-9 7-9 8h-2v2l-11 9-3 1-1 3-7 5h-2v2l-11 8-10 8-11 9-19 14-18 13-15 10-23 16-13 10-16 12-14 11-16 13-11 9-14 12-22 18-8 6h-3l-2 4-14 10-15 10-19 12-14 12-9 7-10 8-22 18-15 13-14 11-14 12-14 10-12 11-8 7-19 19-7 8-10 13-7 11-9 12-11 16-8 13-10 21-14 44-5 26-2 20-1 21v43l2 39 2 19v5h-56l-2-5-5-32-4-13-7-11-11-12v-2h-2v-2h-2v-2h-2l-2-3-3-1v-2l-5-2v-2l-4-2-13-11-8-6-3-2v-2l-4-2-12-10v-2l-4-2-12-12-7-10-9-12-5-12-1-11 1-9v-37l1-6 3-2 2-7 2-37 5-12 8-9 14-9 17-8 18-5 14-3h21l32 7 18 6h7l14-7 11-8 10-9 9-12 12-21 14-24 13-24 10-23 4-13 16-64 5-24 7-36 3-22 2-34v-14l-3-10-5-6-6-4-10-5-6-7-7-12-4-11-2-9-5-13-7-11-5-6-3-6-6-8-1-7 6-16h2l2-8 4-12 3-14 1-15z" fill="#E0E0E1"/>
<path transform="translate(712)" d="m0 0h176v128l-6 3-5 4h-2v2l-8 6h-2l-2 4-3 1-1 3-9 7-9 8h-2v2l-11 9-3 1-1 3-7 5h-2v2l-11 8-10 8-11 9-19 14-18 13-15 10-23 16-13 10-16 12-14 11-16 13-11 9-14 12-22 18-8 6-8 3-2-1-2-5-15-9-8-4v-2l-6-2-16-8-24-9-9-7-1-3h-2l-4-8-3-10-1-11-3-5-12-4-4-2v-2l-8-2-13-5v-2l-11-2-17-6-2-3v-24l1-16 3-1 1-2 6 3 6 5 6 2 10 10 12 7 9 4h15l8-1-3 2-7 2-13 1-4-1v-2l-4-1-18-5-3 2 5 5 10 6 11 4h15l10-2v-2l13-5 21-11 21-13 24-15 14-9 11-9 11-12 5-12 6-22 8-24 8-16 4-7-3 1-8 11-8 15-4 11h-2l-1 2-1-4v-5h3l5-15 8-15 12-16 9-11 8-8 2-1h7l2-4 7-10 8-10 5-3 1-2h2l2-4 9-10 3-3v-6z" fill="#CCE6A4"/>
<path transform="translate(369)" d="m0 0h335l-1 5h-2l-2 4-7 7-7 6-9 11-5 5h-2l-1 3h-2l-2 4-8 7-4 2-2 3h-2l-1 3-7 6-2 3h-3l-2 5-6 5-3 4h-2l-2 5-6 9-1 2h-2l-2 9-4 13-2 12-9 20-8 12-13 14-19 14-3 1v2l-11 7-1 2-8 3-2 2h-4v2l-11 6-9 4h-5v2l-4 1h-8l-9-3-25-12-6-5-17-8-8-8-1-2-1-10-2-1-4-8-9-7-10-5-6-7-7-12-4-11-2-9-5-13-7-11-5-6-3-6-6-8-1-7 6-16h2l2-8 4-12 3-14 1-15z" fill="#CCE6A4"/>
<path transform="translate(887,128)" d="m0 0h1v58l-7 4-16 16-13 9-11 8-18 12-7 6-12 8-19 14-5 6-5 4-6 3-14 11-8 7-5 3-5 5-11 7-15 12-13 10-5 6-6 4-3 1-2 6-11 10-10 8-14 12-14 11h-2l-2 4-11 9-10 9-5 2v2l-9 7-16 13-10 8-20 15-24 16-10 6h-2v2l-8 3-6 4-9 7-5 6h-2l-2 4-14 14-11 9-27 27-8 7-10 11-9 14-13 23-10 23-9 25-4 14-4 24-2 17-1 17v22l1 27 4 52h-53l-3-24-2-39v-43l2-31 2-16 5-23 13-41 12-25 8-12 10-14 13-18 6-9 8-10 14-15 17-17 8-7 10-8 12-9 13-11 14-11 15-13 13-11 30-24 14-11 19-12 12-8 15-11 1-2 7-4 17-14 11-9 14-12 16-13 14-11 18-14 16-12 18-13 24-16 19-14 18-13 12-10 14-11 4-3h2v-2l9-6 5-5 8-7h2v-2l11-9 9-7 6-7 6-4 4-2v-2l8-6z" fill="#FEEFBE"/>
<path transform="translate(884,242)" d="m0 0h4v348l-4-1-9-11-7-11-5-6-4-7-6-7-9-12-9-9v-2h-2l-7-8-9-10-9-8-10-10-8-9-5-5-9-10-6-9-5-17 1-14-3-19-1-8 3-3 18-4 6-4-1-8-9-16-6-11-13-15-2-6 5-5 9-6h2v-2l11-9 15-11 10-6 16-7 11-7 13-10 11-9 8-6h2l1-3 9-6z" fill="#CCE6A4"/>
<path transform="translate(885,186)" d="m0 0h3v56l-9 3-7 5-4 4-9 7-10 8-16 12-28 14-12 8-9 7-8 7h-2v2l-11 7-4 4 2 6 9 10 7 10 11 21 2 4v5l-5 4-12 3-10 2v7l3 15 1 11-1 11 5 16 10 14 7 7v2l4 2 1 3 4 2 7 8 10 9 11 11 7 8 1 3h2l7 9 5 5 7 9 9 11 4 7 5 6 4 7 9 11 3 1v13l-4-1-3-3-10-5-10-9-5-4-6-8-6-5-4-6-14-14-7-8-6-7-4-4-8-15-11-22-5-5-5-8-7-10-2-3-1-4-4-2-7-11-4-13-3-14-1-8v-16l8-16 3-4 2-14 3-6-2-5-7-10-6-11-2-1-1-4 1-6h3l-2-4-1-3-7 1-4 1 4-5 7-4 3-4v-3h3v-2l7-2-1-2-9 4-11 8-15 10-13 10-11 9-18 13-6 5-2-1 5-5 2-5 7-5h2l2-4 10-9 12-9 13-10 10-6 4-5 5-3 12-10 11-8 5-3 5-5h2l1-3 19-14 16-11 7-6 14-9 16-12 9-6 15-15z" fill="#DFE0D8"/>
<path transform="translate(704)" d="m0 0h8v8l-10 10-5 7h-2l-2 4-5 3-6 8-7 10-3 4-9 2-10 10-13 17-6 8-9 19-4 14-2-4v8l3-1 1-5 5-12 7-12 7-9h3l-2 6-7 12-7 19-6 21-5 17-5 8-11 12-14 11-23 14-19 12-17 10-21 11-5 2h-4v2l-10 3h-15l-11-4-12-7-4-5 1-2 4-1 9 3 8 2 4 2v2l17-1 10-2v-2l21-9 24-12 24-16 9-7h2l-1-3 3-5 8-7 9-9 5-7 3-10 3-1 1 6 3-12 2-1v-9l1-2h-2v8h-2v7l-4 1 1-9 7-32 4-1 2-5 3-5h2l2-8-6 5-3 7-3-1v-3l-2-2 6-9 5-5 5-4 3-5 3-1 7-8 5-4 3-4 5-3 7-6 4-5 8-7 11-13 12-11 1-2h2z" fill="#DFE0DF"/>
<path transform="translate(422,237)" d="m0 0h1l1 11 3 3 15 5 11 3v2l9 2 12 5v2l4 1 12 4 3 3 1 3 1 11 6 18h2l4 5 9 5 25 10 16 8 2 2-3 1 3 1v2l-8 3 1 2-7-1-8-1v-2l-10 1-11-7-4-1-1 2-5-5-6-11-5-9-3-4-1-6h-8l-1-3-4 1-5-3-3-4-2 1v5l-2 1-3-3 1-2-7 1-1-1-10-2-1-3-1-6 7 1-1-4-9 1-5-3h-5l-1-4-1-7-4-4v-2l-3-1-1-6z" fill="#DFDFD8"/>
<path transform="translate(628,86)" d="m0 0h2l-1 6-1 2h-2l-2 5-3 6h-4l-1 9-6 27 2 4 1-7h2v-8h2v11l-3 5-3 9-2-4v-2h-2l1 3h-2l-1 7-8 10-13 13-3 2-1 6-11 8-18 12-14 8-25 12-12 5-8 2h-15l-16-8-9-6v-3l18 11 7 3h14l16-6 16-8h-3l1-5 14-8 4-2 1-3 9-6h2v-2l19-14 10-9 8-10 8-14 6-14 2-12 4-13 3-9h2l2-5 4-1v4l2 1 2-7z" fill="#E0E0E0"/>
<path transform="translate(580,353)" d="m0 0 3 1 1 5 7-1-5 5-18 13-24 15-10 8-16 13-10 8-22 18-15 13-14 11-14 12-14 10-12 11-8 7-19 19-7 8-10 13-7 11-9 12-11 16-8 13-10 21-14 44h-1v-8l6-26 3-7 8-19 5-9 4-13 6-11 4-5 7-10h3l1-5 11-17 8-10 4-4h2l2-4 8-8 9-5 9-7 5-5 3-5 9-4 11-11 11-6 5-4h2v-2l5-3 11-8 4-2v-2h2v-2l8-6 13-10 14-12 8-7 5-5 5-3h2l1-6 7-1 7-5 10-5 11-8 2-4 8-6z" fill="#E1E0D9"/>
<path transform="translate(885,186)" d="m0 0h3v6l-11 9-3 1-2 5-6 5-8 4h-2l-2 5-3 1v3l-3 1v4h-2v2l-6 4-3 4-3-1-1-2-2-1-2 4-7 3-4 5h-2v2h-2l-1 4-5 5-6 3-9 6-8 6h-2v3l-5 5-7 4-9 8-9 4-11 8-15 10-13 10-11 9-18 13-6 5-2-1 5-5 2-5 7-5h2l2-4 10-9 12-9 13-10 10-6 4-5 5-3 12-10 11-8 5-3 5-5h2l1-3 19-14 16-11 7-6 14-9 16-12 9-6 15-15z" fill="#F4ECDB"/>
<path transform="translate(884,242)" d="m0 0h4v11l-10 2-6 2-5 5-8 6-6 5-5 1-2 4-5 5-8 7-4 4-10 3-5 5-9 3v2l-5 4-4 5h-2l-1 4-3 6-2 5-4 4-4 16 4 15 4 5 4 7v8h-1l-1-8-3-1-8-15-6-11-13-15-2-6 5-5 9-6h2v-2l11-9 15-11 10-6 16-7 11-7 13-10 11-9 8-6h2l1-3 9-6z" fill="#D4E5AF"/>
<path transform="translate(712)" d="m0 0h22l-3 6-5 6-5 5-1 2h-2l-2 6-5 1v5l-8 7-6 1h-6l-4 4-4 6-4 5-3 9-6 9-4 2v2l-9 7-9 9-10 13v-3l7-13-3 1-8 11-8 15-4 11h-2l-1 2-1-4v-5h3l5-15 8-15 12-16 9-11 8-8 2-1h7l2-4 7-10 8-10 5-3 1-2h2l2-4 9-10 3-3v-6z" fill="#CBE3BF"/>
<path transform="translate(348,75)" d="m0 0 4 2 4 5 1-2 3 5 4 6 7 9 5 11 3 8 2 10 5 12 8 12 5 4 10 5 7 6 4 8 1 5v14h-2l-1 4-3-1-2-9-4-12v-3l-4-1-4-7-5-3-7-3-8-9-11-19-1-5-8-14v-9l-8-1-17-1-7-3-1-4 6-7 10-3 3-5z" fill="#ACCFF0"/>
<path transform="translate(704)" d="m0 0h8v8l-10 10-5 7h-2l-2 4-5 3-6 8-7 10-3 4-9 2-10 10-13 17-6 8-9 19-4 14-2-4v5h-2v5h-2v8h-2v7l-4 1 1-9 7-32 4-1 2-5 3-5h2l2-8-6 5-3 7-3-1v-3l-2-2 6-9 5-5 5-4 3-5 3-1 7-8 5-4 3-4 5-3 7-6 4-5 8-7 11-13 12-11 1-2h2z" fill="#D3DCCD"/>
<path transform="translate(420,176)" d="m0 0 2 1 1 10 1 4 5 2 4 4 17 8 1 3 5 2 27 13 5 1h12v-2l10-3 8-4 5-3h2v-2l5-2 5-3 2 1-9 6-7 4-1 4 5-1-5 4-20 9-9 3h-14l-14-7-7-5-6-3-5-5-7-2-7-6h-4l-2 1-1 16-2 2-2-12z" fill="#E0E0E1"/>
<path transform="translate(383,385)" d="m0 0 1 3-10 23-10 19-14 24-15 26-9 12-8 8-14 10-14 7h-7l-18-6-7-2 2-3h9l3 2 16-1 15-4 1-2 5-3 9-9 7-8 6-7 12-22 6-9 8-14 8-19 6-10 7-9h2l2-5z" fill="#A1C1EB"/>
<path transform="translate(778,391)" d="m0 0h6l-2 2-2 9-1 4 1 4-1 7v9l1 3 5 27v9l3 9 3 1v2h2l1 3 4 4 2 4-3-1-7-8-5-5-9-10-6-9-5-17 1-14-3-19-1-8 3-3z" fill="#D4E5AF"/>
<path transform="translate(887,769)" d="m0 0h1v63h-64v-1l19-5 16-8 9-7 8-11 6-13z"/>
<path transform="translate(0,771)" d="m0 0 2 4 6 18 7 12 5 6 10 8 15 7 18 5v1h-63z"/>
<path transform="translate(827)" d="m0 0h61v65h-1l-4-17-6-15-8-11-9-8-16-8-17-5z"/>
<path transform="translate(416,247)" d="m0 0h2v2h2v23l-10 45-5 18-12 43-4 12-5 13-4 4-2-1 2-11 6-16 17-68 5-24z" fill="#F3F7F6"/>
<path transform="translate(0)" d="m0 0h60l-3 2-16 5-12 6-12 11-8 12-5 15-3 12h-1z"/>
<path transform="translate(887,111)" d="m0 0h1v17l-6 3-5 4h-2v2l-8 6h-2l-2 4-3 1-1 3-9 7-9 8h-2v2l-11 9-3 1-1 3-7 5h-2v2l-11 8-10 8-2-1 7-7 5-2v-2l4-4 3-1 5-5 6-5 6-9 4-8 4-5 6-4 8-7 9-6 10-7 3-1 2-4 6-10z" fill="#D5E5B0"/>
<path transform="translate(369)" d="m0 0h4l1 25-5 10-4 13-7 7-4 8 1 4 6 10 3 6 4 4 4 9 8 21 4 15 6 12 4 5 1 3 6 3v2l5 2-3 1-8-5-7-9-7-14-2-6-2-9-5-13-7-11-5-6-3-6-6-8-1-7 6-16h2l2-8 4-12 3-14 1-15z" fill="#CBE3C0"/>
<path transform="translate(494,283)" d="m0 0h1l2 10 3 3v2l3 1 4 6 1 3 12-1 2 5 2 1 1-2 4 6-1 2 4 1 1-2 1 3 5 2 5 6 29 15 7 6 9 5 2 3-5 2-2-1-2-5-15-9-8-4v-2l-6-2-16-8-24-9-9-7-1-3h-2l-4-8-3-10z" fill="#D4E4B0"/>
<path transform="translate(886,239)" d="m0 0h2v3l-9 3-7 5-4 4-9 7-10 8-16 12-28 14-12 8-9 7-8 7-2-1 13-13 4-3h2l1-3 7-4h2v-2l8-4 5-3h2v-2l11-7 11-8 4-5 6-2 2-4 9-6 5-1 5-3 6-4z" fill="#D5E0CB"/>
<path transform="translate(804,494)" d="m0 0 4 2 17 17 7 8 1 3h2l7 9 5 5 7 9 9 11 4 7 5 6 4 7 9 11 3 1-1 4-8-8v-2h-2l-8-10-5-6v-2l-3-1-10-13-7-8-3-3v-2h-2v-2h-2v-2l-4-2-12-16-6-7-6-8v-2h-2l-3-4z" fill="#D3DCCD"/>
<path transform="translate(92,515)" d="m0 0 3 2-2 14-2 2v26l-2 2-7-1-1-1v-14l-2-14 1-9 6-4z" fill="#B0D1EF"/>
<path transform="translate(578,185)" d="m0 0h2v5l-11 8-18 12-14 8-25 12-12 5-8 2h-15l-16-8-9-6v-3l18 11 7 3h14l16-6 32-16 7-5 9-5 14-10z" fill="#A1C1EB"/>
<path transform="translate(546,458)" d="m0 0 2 1-11 8-40 30h-2v2l-14 11-13 11-8 7-9 8h-2l-1 3-8 7-5 5-2-1 23-23 11-9 14-14 5-6h2l2-4 12-9 6-3h4v-2l11-6 11-8z" fill="#F5ECDB"/>
<path transform="translate(886,192)" d="m0 0h2v17l-6 1-7 1-5 5-4 2-3 3-4 1v2h-3v2l-5 3-4-1 1-3h3v-3l8-8 10-5 4-5 5-5z" fill="#E2E1E1"/>
<path transform="translate(362)" d="m0 0h7l-1 16-4 17-6 17h-2l-2 8-3 8v7l-3 1-1-6 7-19 2-5-1-3 1-8 2-4 1-7 1-2h2v-11l-1-7z" fill="#ACCFF1"/>
<path transform="translate(312,660)" d="m0 0 1 4-4 21-2 20-1 21v43l2 39 2 19v5h-2l-3-23-1-33-1-16v-33l3-35 3-20z" fill="#F5ECDB"/>
<path transform="translate(762,395)" d="m0 0 1 2 1 8 3 19-1 15 5 16 10 14 7 7-1 2-10-10-8-11-5-9-3-18-1-14v-17z" fill="#D4DFCB"/>
<path transform="translate(179,504)" d="m0 0h8l6 2v2l-15 5-19 9-12 9-3 1 2-4 3-4 3-6 5-2v2l6-1 1-3 5-3 3-5z" fill="#A1C1EB"/>
<path transform="translate(765,394)" d="m0 0 2 1-1 3 2 5-1 2h2v10l2 10 1 18 1 9v6l-3-3-5-17 1-14-3-19-1-8z" fill="#CCE7A4"/>
<path transform="translate(140,497)" d="m0 0h11l1 3v9l-4 6-1 1h-6l-4-4v-12z" fill="#F3F6F6"/>
<path transform="translate(451,230)" d="m0 0 18 5 4 2v2h13l-3 2-6 1-6-2h-7v3l12 4h11l12-2-2 2-8 2h-15l-11-4-12-7-4-5 1-2z" fill="#D2E0C8"/>
<path transform="translate(552,197)" d="m0 0h1v7l-16 10-9 5-8 1 1-5 14-8 4-2 1-3 10-4z" fill="#F3F7F6"/>
<path transform="translate(420,176)" d="m0 0 2 1 1 10 1 4 5 2-4 1v5l4 2 14 12-4 1-8-7h-4l-2 1-1 16-2 2-2-12z" fill="#D1DFC8"/>
<path transform="translate(609,148)" d="m0 0 1 3 1 5-6 11-9 10-8 8-8 5-1-3 3-5 8-7 9-9 5-7 3-10z" fill="#CBE6A7"/>
<path transform="translate(626,97)" d="m0 0h2l-7 21-2 4v3h-2v5h-2v8h-2v7l-4 1 1-9 7-32 4-1 3-5z" fill="#D1DDCB"/>
<path transform="translate(128,595)" d="m0 0h1v43l-1 15 4 13 7 11 6 8 8 10 8 7 5 6h-3l-16-16-11-15-6-9-4-12v-15l1-9v-35z" fill="#ADD0F1"/>
<path transform="translate(359,82)" d="m0 0 2 4 4 2 3 3 3 6 3 5 6 15 4 15 6 12 4 5 1 3 6 3v2l5 2-3 1-8-5-7-9-7-14-2-6-2-9-5-13-7-11-5-6z" fill="#CEE1C4"/>
<path transform="translate(836,527)" d="m0 0 5 4 7 8 6 8 9 11 4 7 5 6 4 7 9 11 3 1-1 4-8-8v-2h-2l-8-10-5-6-5-9-7-10v-3h-2l-9-11-5-6z" fill="#D4DFCA"/>
<path transform="translate(173,487)" d="m0 0h10l4 4-1 5-6 3h-9l-1-2v-8z" fill="#E1E1E2"/>
<path transform="translate(420,214)" d="m0 0h1l1 12 2 1-2 31-2 2v-11h-2v-2h-2l2-18 1-14z" fill="#E0E0E0"/>
<path transform="translate(662,65)" d="m0 0 2 1v6l-5 5-11 13-4 3 1-4-3-1 9-11 7-8h2z" fill="#D4DCCD"/>
<path transform="translate(214,749)" d="m0 0 4 1 1 3h2v2h2v2h2l7 8 7 9 6 10 4 16 4 27 1 5h-2l-3-13-4-25-2-8-5-9-8-11-6-6v-2l-4-2z" fill="#ADD0F1"/>
<path transform="translate(369)" d="m0 0h3v17l-2 10-4 6-3 2 4-19 1-15z" fill="#E1E1E2"/>
<path transform="translate(831,236)" d="m0 0h4l-1 6-6 4-1 2h-2v2l-6 2v2l-7 2 2-6h2v-2l5-5 9-5z" fill="#E1E1E1"/>
<path transform="translate(860,554)" d="m0 0 10 10 6 8 7 9 1 2 4 1v6l-4-1-9-11-7-11-5-6-3-5z" fill="#D4E5AE"/>
<path transform="translate(370,82)" d="m0 0 2 1v3h2l3 12 3 6-1 9-3-4-6-15-3-9z" fill="#D4E4B1"/>
<path transform="translate(495,295)" d="m0 0 2 3 4 10v2h2l4 5 9 5 25 10 2 2-13-2-7-4-8-3-10-6-6-8-4-10z" fill="#D4DECC"/>
<path transform="translate(700)" d="m0 0h4l-1 5h-2l-2 4-7 7-7 6-9 11-5 5h-2l-1 3-2-1 7-8 7-7 4-6 7-7h2l2-4 4-5z" fill="#CBE4BF"/>
<path transform="translate(68,553)" d="m0 0 5 2 1 2v6l-3 4h-7l-2-3 1-5 3-5z" fill="#ADD0F1"/>
<path transform="translate(580,353)" d="m0 0 3 1 1 5 7-1-5 5-18 13-11 6 1-3 14-10 2-4 8-6z" fill="#E2E1D9"/>
<path transform="translate(774,353)" d="m0 0 3 3 11 21 2 4v5l-5 4-7 1 2-2 4-2-2-15-6-13z" fill="#D5E0CB"/>
<path transform="translate(598,174)" d="m0 0 2 1-1 4-11 11-9 4-6 3-3-1 8-6 7-4 10-9z" fill="#DDE0D4"/>
<path transform="translate(419,195)" d="m0 0h1v20l-2 22-3 19-2 2 1-18 2-8 2-31z" fill="#A2C3EC"/>
<path transform="translate(372)" d="m0 0h1l1 25-4 7-4 3-2 7h-2l-1 5-3 5-3 2 1-4h2l2-8 3-7 4-4 3-6z" fill="#CFE1C4"/>
<path transform="translate(421,197)" d="m0 0h2v4l4 2 3 3-5 2-1 16-2 2-2-12v-14z" fill="#D4E0CA"/>
<path transform="translate(172,513)" d="m0 0 4 1-17 8-12 9-3 1 2-4 3-4 3-6 5-2v2l6-1z" fill="#A5C6ED"/>
<path transform="translate(558,337)" d="m0 0 16 8 6 5 9 5 2 3-5 2-2-1-2-5-15-9-8-4z" fill="#D3E2BA"/>
<path transform="translate(322,495)" d="m0 0h4v6l-6 5-4 2-4-1 2-5z" fill="#F3F7F6"/>
<path transform="translate(368,32)" d="m0 0 1 3-4 13-7 7-5 9-2 1 3-9 5-6 3-8h2l1-7z" fill="#CCE3C1"/>
<path transform="translate(82,524)" d="m0 0 4 1v8l2 2-1 6-1 3h-3l-2-10z" fill="#E1E1E2"/>
<path transform="translate(630,75)" d="m0 0v3l-6 10-2 8-1 2-3-1v-3l-2-2 6-9 5-5z" fill="#D4DFCA"/>
<path transform="translate(803,260)" d="m0 0 4 1-3 1-2 4-7 6-5 1-7 3v-2l6-4 7-5 2-2z" fill="#E1E1E2"/>
<path transform="translate(451,220)" d="m0 0 8 4 11 7 7 3 11 1-1 2h-10l-16-8-9-6z" fill="#A2C3EC"/>
<path transform="translate(422,237)" d="m0 0h1l1 11 3 3 15 5 11 3v1h-7l-21-7-3-2z" fill="#D0E1C5"/>
<path transform="translate(359,82)" d="m0 0 2 4 4 2 3 3 3 6 3 5 3 7v5l-2-3-6-12-7-9-3-5z" fill="#D4DCCD"/>
<path transform="translate(628,86)" d="m0 0h2l-1 6-1 2h-2l-2 5-3 6h-3l3-9 3-6z" fill="#ADD0F1"/>
<path transform="translate(581,431)" d="m0 0 2 1-8 9-6 3-5 4h-2l-2 4-5 1 5-5 20-16z" fill="#ECE7DA"/>
<path transform="translate(355,446)" d="m0 0 1 3-2 6-2 5-3 3h-2l1-7 4-7z" fill="#F2F5F5"/>
<path transform="translate(615,130)" d="m0 0h2v11l-3 5-3 9-2-4-1-4 3-4 1 2 1-7h2z" fill="#A3C1E9"/>
<path transform="translate(423,198)" d="m0 0 5 2 10 9 5 5-5-1-9-8-6-4z" fill="#CCE2C1"/>
<path transform="translate(417,231)" d="m0 0h1l-1 12-2 13-2 2 1-18z" fill="#A4C4EC"/>
<path transform="translate(572,347)" d="m0 0 6 2 11 6 2 3-5 2-2-1-2-5-10-6z" fill="#D4DCCD"/>
<path transform="translate(609,148)" d="m0 0 1 3 1 5-3 5-4 2 2-11 1-3z" fill="#CBE4B6"/>
<path transform="translate(804,494)" d="m0 0 4 2 17 17 1 3h-2l-7-8-7-7-3-1-3-4z" fill="#D3E0C9"/>
<path transform="translate(836,527)" d="m0 0 5 4 7 8 5 7h-3l-9-11-5-6z" fill="#D3E0C9"/>
<path transform="translate(170,497)" d="m0 0 1 2 12-1-5 4-3 3-5-2z" fill="#ADD0F1"/>
<path transform="translate(495,235)" d="m0 0h5l-3 2-7 2-13 1-2-2 3-1 14-1z" fill="#CCE6AA"/>
<path transform="translate(782,366)" d="m0 0 4 2 6 10v8h-1l-1-8-3-1-5-9z" fill="#D2E5AD"/>
<path transform="translate(140,497)" d="m0 0h11l1 3v9l-2 2v-11l-7-1-5 1v-2z" fill="#E1E1E2"/>
<path transform="translate(406,160)" d="m0 0h4v2l4 1v2h3l1 5h2v6l-2-3-6-8-6-4z" fill="#D8DFD4"/>
<path transform="translate(775,282)" d="m0 0 1 4h-2v2l-6 4-3-1 5-5z" fill="#E1E1E2"/>
<path transform="translate(616,93)" d="m0 0 3 1 1 6-1 3-2 1-1 4-2-1 2-9-2-2z" fill="#DADED6"/>
<path transform="translate(134,567)" d="m0 0h1v19l-3 8h-3l3-5 1-6z" fill="#ADD0F1"/>
<path transform="translate(614,170)" d="m0 0v3l-4 6-7 6-2-1 8-8z" fill="#CDE1C3"/>
<path transform="translate(392,150)" d="m0 0h2l1 2 6 3v2l5 2-3 1-8-5-3-3z" fill="#D8DFD3"/>
<path transform="translate(824,285)" d="m0 0 2 1-10 6-8 1 2-2z" fill="#CCE7A4"/>
<path transform="translate(842,273)" d="m0 0 2 1-8 7-8 4-2-1 11-7z" fill="#CCE7A4"/>
<path transform="translate(362,36)" d="m0 0h1l-1 9-3 6-4 3 1-4h2l2-8z" fill="#E1E1E2"/>
<path transform="translate(619,119)" d="m0 0 2 2 3-1-2 7h-2l-1 2-1-4v-5z" fill="#CDE1C3"/>
<path transform="translate(358,51)" d="m0 0 1 3-6 10-2 1 3-9z" fill="#CEE1C4"/>
<path transform="translate(535,205)" d="m0 0 2 1-12 8-4-1 4-1v-2l5-2z" fill="#DCE0DA"/>
<path transform="translate(422,237)" d="m0 0h1l1 11 3 3 4 2h-6l-3-2z" fill="#D2E1C8"/>
<path transform="translate(646,92)" d="m0 0v3l-8 10v-3l5-9z" fill="#CDE2C2"/>
<path transform="translate(568,372)" d="m0 0m-1 1 1 3-11 6 1-3z" fill="#E5E3D9"/>
<path transform="translate(547,331)" d="m0 0 10 5v3l-12-6z" fill="#D2E4B3"/>
<path transform="translate(615,130)" d="m0 0h2v11l-2 2-2-1v-4h2z" fill="#A5C5EB"/>
<path transform="translate(349,73)" d="m0 0h3l4 5 1 5-3-1-3-5z" fill="#A3C3EC"/>
</svg>
