<?xml version="1.0" encoding="UTF-8"?>
<svg version="1.1" viewBox="0 0 2048 628" width="1280" height="1280" xmlns="http://www.w3.org/2000/svg">
<path transform="translate(0)" d="m0 0h2048v628h-2048z" fill="#F0EEEA"/>
<path transform="translate(1877,100)" d="m0 0h7l12 4 9 6 9 10 16 25 15 23 14 22 13 20 32 50 11 17 14 22 6 11v11l-5 22-4 6-8 7-19 12-17 10-6 4h-4l-1 3-9 5-14 9h-4l-1 3-4 2h-3l-1 3-35 21-16 8-7 2h-16l-17-3 28 44 34 51 4 4 7-24 6-11 9-8 30-20 5-2 43-29 17-11 5-5 8-4 6-4h2v212h-711l-6-16-8-30-9-40-7-35-2-15v-23l3-14 8-16 8-11 14-14 16-12 22-14 19-12 7-3 48-30 17-11h2v-2l5-2 1-2 6-3h2v-2l6-3h2v-2l10-5 22-14 16-10 14-9h2v-2h3v-2l10-5 4-3h2v-2l8-4 19-12 24-15 11-7h2l1-3h4l1-3 16-10 25-16 5 1 9 13 8 12 7 9 6-28 5-10 8-7 21-12 18-11 7-3 49-29 13-8h2l1-3h4l1-3h4l1-3 20-11z" fill="#D5F6BC"/>
<path transform="translate(1749)" d="m0 0h299v416l-9 6-7 3-8 7-44 29-14 10-7 3-24 16-10 8-6 10-5 15-3 12-7-6-29-44-11-17-12-19-8-12v-2l17 2h16l12-4 20-11 24-15 3-3 7-3 1-2 7-3 11-7 9-5 1-2 7-3 15-9 21-13 9-7 4-5 6-24v-11l-9-16-11-17-16-25-11-17-14-22-13-20-32-50-16-24-9-10-12-6-7-2h-7l-16 8-7 4-1 2-4 1-1 2-4 1-4 4-26 15-15 9-23 14-7 3-29 17-11 7-5 6-4 10-5 26-5-4-12-18-9-13-6 1-20 13-19 12-1 2-4 1-4 4-20 12-22 14-16 10h-3v2l-13 8h-3v2h-3v2l-21 13-22 14-18 11h-3v2l-5 3h-3v2l-5 3h-3l-1 3-5 1v2l-24 15-19 12-24 15-10 5-24 15-18 12-14 11-13 13-9 14-5 11-3 14v23l4 26 10 47 11 44 6 17v2h-192l-13-26-1-4 13-9 35-23 7-4-1-5-8-17-10-19-13-29-8-24-6-25-2-12v-29l6-39 5-17 7-16 7-11 12-12 14-7 5-1h14l11 4 9 6 11 11 2 1 9-1 11-6 27-18 22-14 19-12 17-11 50-32 104-66 41-26 50-32 20-13 25-16 23-15 22-14 17-11 25-16 25-17z" fill="#F0EEEA"/>
<path transform="translate(1290)" d="m0 0h459l-5 5-32 21-25 16-17 11-22 14-23 15-25 16-20 13-25 16-110 70-82 52-17 11-25 16-44 28-21 14-9 4h-6l-8-7-7-7-14-7-4-1h-14l-10 3-10 6-10 10-7 11-5 11-6 18-6 35-1 8v29l5 25 7 25 8 20 12 26 14 27 2 5-1 4-15 9-39 26 4 10 9 18v2h-143l4-5 16-11 6-5-9-14-8-16-13-28-8-21-8-28-6-29-4-27-3-30-1-17v-30l2-24 5-26 9-27 12-27 8-16 10-19 18-27 9-12 13-15 12-13 17-17 8-7 12-11 13-10 18-13 5-2v-2l13-8h2l5-5 20-13 14-9 11-7 16-10 66-44z" fill="#DBD5D2"/>
<path transform="translate(0)" d="m0 0h83l7 11 16 24 19 29 10 15 16 23 98 147 7 10 11 16 13 18 12 17 11 16 36 51 11 16 12 17 7 14v13l-4 6-9 8-23 16-24 16-18 13-14 10-18 14-19 13-15 11-12 8-43 29-18 12-15 11-12 8-20 14-2 2h-103z" fill="#DBD5D2"/>
<path transform="translate(555)" d="m0 0h248l-2 4-12 13-7 8-12 13-7 8-12 13-15 16-33 36-9 11-7 7-9 11-10 13-13 18-9 13-6 9 1 4 4 5-1 4-15 9-16 12-20 14-24 16-17 12-33 22-22 15-17 11-10 6-5-2-9-10-9-14-6-12-1-4v-41l2-31 5-27 6-27 5-15 18-37 10-16 13-17 9-12 13-16 11-14 11-13 9-11z" fill="#96DAFF"/>
<path transform="translate(755,376)" d="m0 0 4 2 10 16 14 20 16 23 22 32 14 20 13 18 24 34 14 20 13 19 28 42 2 6h-264l-6-11-14-21-11-16-12-17-13-19-13-18-8-10 2-4 12-12 8-7 9-9 6-16 4-9 5-6 33-22 25-16 23-15 21-13 15-9z" fill="#96DAFF"/>
<path transform="translate(1749)" d="m0 0h21l-4 4-26 16-17 11-10 7-66 42-16 10-4 2-4 3h-2l-1 2h-2l-1 2-4 2-9 5-4 4-16 10-4 2-8 5h-2v2l-3 2h-3v2l-11 6-8 6-9 5-4 3h-2l-2 3-5 1v2l-6 3h-2v2l-9 5h-2l-1 3-9 5-9 6h-2l-1 2h-2l-4 4-25 16-5 2-3 1v2l-50 32-63 40-5 2-3 1v2h-3v2l-8 4-20 13-15 10-13 10-13 13-1 2h-2l-2 4-6 8h-2l-2 5h-2l-2 5h-2l-2 4-6 9h-2l-1 4h-2l-2 5-1 2h-2v3h-2v3h-2l-1 4-9 17-5 15-3 22-1 17v25l2 31 4 26 9 39 8 29 2 6v4h-68l-13-26-1-4 13-9 35-23 7-4-1-5-8-17-10-19-13-29-8-24-6-25-2-12v-29l6-39 5-17 7-16 7-11 12-12 14-7 5-1h14l11 4 9 6 11 11 2 1 9-1 11-6 27-18 22-14 19-12 17-11 50-32 104-66 41-26 50-32 20-13 25-16 23-15 22-14 17-11 25-16 25-17z" fill="#EEECE9"/>
<path transform="translate(102,228)" d="m0 0h3l11 15 27 40v3l-12 9-12 8-18 13-16 11-15 10-17 11-8 5h-2l-9-15-17-25-13-18-2-3 15-8 17-11 32-21z" fill="#F1EFEB"/>
<path transform="translate(441,542)" d="m0 0 5 1 9 12 13 20 11 17 19 29 4 7h-182l5-5 14-11 17-12 18-12 16-12 16-10 12-9 12-8z" fill="#DCD6D3"/>
<path transform="translate(212,372)" d="m0 0h11l10 4 6 8 2 5v9l-3 13 2 1-2 6-4 5-10 7-2 2 12 17 9 13 7 13-1 4-4-2-21-31-9-12-11 1-7-4-2-2-4 1-21 14-43 29-7 4-10-13-13-19-7-10 4-4 22-13 5-1-1 2 54-29 18-10 13-6z" fill="#F1EFEB"/>
<path transform="translate(1988)" d="m0 0h60v92l-4-4-11-18-10-15-12-19-15-23-8-12z" fill="#F1EFEB"/>
<path transform="translate(259,15)" d="m0 0 14 8 17 10 8 6-1 5-11 18-7 9-3 3-6-2-27-14-7-5 1-5 10-16 11-16z" fill="#DCD6D3"/>
<path transform="translate(4,90)" d="m0 0 5 1 12 15 9 13 13 18-2 5-18 13-15 9-8 4v-74z" fill="#F1EFEB"/>
<path transform="translate(184)" d="m0 0h84l-5 5-23 12-16 7-11 3-9-1-8-6-7-11-4-5z" fill="#DCD6D3"/>
<path transform="translate(154,6)" d="m0 0 7 3 4 6 2 5h3l8-7 5-1 1 3-17 12-11 9-9 7-4-1-9-11-3-4 2-5 5-8z" fill="#ECECEA"/>
<path transform="translate(293,198)" d="m0 0h11l5 4 2 4v8l-3 6-6 5-6 3-12 1-6-8v-2h-2l-1-6 9-10 6-4z" fill="#E8ECEB"/>
<path transform="translate(916,102)" d="m0 0 1 2-13 21-16 25-14 20-11 16-8 10-9 10-8 10-9 10-14 15-12 12-8 7-8 8-11 9-9 8-13 10-15 12-19 14-18 14-52 39-21 16-16 12-5 2 5-5 13-10 17-13 16-12 21-16 19-14 17-13 21-16 13-10 14-11 13-11 14-12 36-36 9-11 12-14 14-18 13-18 24-36 14-22z" fill="#DCD6D3"/>
<path transform="translate(301,569)" d="m0 0 6 1 6 5 10 15 3 5-1 4-14 10-5 2-6-1-5-6-1-8 5-5 9-8h3l-4-7-5-2-5 1-7 6-4 4-2-1 2-6 7-6z" fill="#608AB5"/>
<path transform="translate(28,420)" d="m0 0h3l7 12 10 13 7 8-5 5-7 5h-3l-14-20-8-12 1-4z" fill="#F1EFEB"/>
<path transform="translate(332,550)" d="m0 0h8l6 5 10 16 2 4-4-1-9 8-6-1-8-8-4-8-1-3v-7l4-4z" fill="#ECEDEA"/>
<path transform="translate(262,599)" d="m0 0 5 1 8 7 5 8 1 5-6 8h-13l-8-13-2-7 3-5z" fill="#EFEDE9"/>
<path transform="translate(328,524)" d="m0 0 6 5 7 11 12 17 10 15-5 4-11 8-4 2-5-1-10-9-6-11-1-9 3-5 7-4 5-2h3l-11-15-1-5zm4 26-5 3-1 2v7l4 9 7 8 4 3 5-1 8-7 4 1-2-4-11-17-5-4z" fill="#608AB5"/>
<path transform="translate(884,33)" d="m0 0 5 2 8 10 11 14 14 17 3 4v2h-8l-35-9-18-6-2-1 1-3 9 1 36 10 8 3-6-8-8-9-11-14-8-9z" fill="#608AB5"/>
<path transform="translate(413,329)" d="m0 0 3 1-1 3-13 8-9 6v1l34 4 7 2 1 3-16-1-10-1-9 20-5 11-4-4 2-5 8-16 3-7-12-2-7 1-8 6-3-2 2-4 11-7 13-9z" fill="#608AB5"/>
<path transform="translate(43,537)" d="m0 0 5 1-1 4-9 8-18 12-19 13h-1v-12l15-9 15-10z" fill="#F1EFEB"/>
<path transform="translate(268,592)" d="m0 0 4 2 10 15 7 11 5 8h-19l5-8-2-7-7-9-5-4-6 1-6 4-1 5 6 12 3 4v2h-5l-5-8-3-6v-9l4-5z" fill="#608AB5"/>
<path transform="translate(27,509)" d="m0 0 3 1 3 11-32 20h-1v-14l9-6 17-11z" fill="#F1EFEB"/>
<path transform="translate(154,6)" d="m0 0 7 3 4 6 2 5h3l8-7 5-1 1 3-17 12-11 9-9 7-4-1-9-11-3-4 2-5 5-8zm-3 5-10 6-4 5v7l4 6 1 1h6l11-7 5-5-2-8-4-4z" fill="#608AB5"/>
<path transform="translate(1441,207)" d="m0 0 4 1h-2v2l-50 32-63 40-4 1v-3l16-10 17-11 19-12 25-16 19-12z" fill="#DAD5D2"/>
<path transform="translate(373,518)" d="m0 0 9 2 7 7 1 4-4 3-2-1-1-5-4-4-7-1-6 4-3 5v5l5 6 4 1-2 1 1 4 5 4 7 1 8-7 5-6 2 1-1 5-7 8-7 3-2-1v2l-6-1-8-6-7-10-1-3v-9l4-6 5-4z" fill="#608AB5"/>
<path transform="translate(247,94)" d="m0 0 2 1-1 4-13 10-11 8v2h17l8 1v3h-10l-7 1-3 12-4 10-5-5h2l2-5 3-8v-4l-3-1h-7l-9 5-1-4 12-8 15-12z" fill="#608AB5"/>
<path transform="translate(1288,372)" d="m0 0 2 1-9 10-11 14-14 18-10 16-4 8-2 16v58l1 17 1 13-2-4-2-10-1-10v-65l1-11 5-12 7-12 8-11 13-16 8-10z" fill="#DCD6D3"/>
<path transform="translate(372,522)" d="m0 0 9 2 4 6v5l-11 8-7 1v-3l-3-1-2-3 1-8 7-6z" fill="#EDECE9"/>
<path transform="translate(1721,29)" d="m0 0 3 1-9 7-18 11-17 11-44 28-5 3-3-1 4-4 25-16 19-12 24-15 19-12z" fill="#D9D4D2"/>
<path transform="translate(333,244)" d="m0 0 5 1 9 13 1 8-11 8-13 9-2 1-1-4 16-12 7-6-6-10-4-2-12 6-10 7-4 1v-4l19-12z" fill="#608AB5"/>
<path transform="translate(293,198)" d="m0 0h11l5 4 2 4v8l-3 6-6 5-6 3-12 1-6-8-1-3 4 1 5 5h7l8-3 5-6 1-5-2-8h-10l-10 6-4 5-2 3-2-1-1-3 7-8 7-5z" fill="#608AB5"/>
<path transform="translate(310,585)" d="m0 0 5 1 4 6 1 5-4 5-9 5-6-1-2-3v-8l5-5z" fill="#EDECE8"/>
<path transform="translate(448,405)" d="m0 0 3 1 7 11 4 8-10 10-15 10h-3l2-5 11-7 11-9-6-9-2-2-7 1-11 7-9 6h-2l-1-3 10-7z" fill="#608AB5"/>
<path transform="translate(423,376)" d="m0 0 7 1 4 5 2 5v9l-4 5-18 12-5-4-8-11-2-4 1-4 6-5 7-1 3 3-1 1-10 2-1 7 5 6 2 1h7l5-3 2-3 5-1 3-4-3-9-5-5z" fill="#608AB5"/>
<path transform="translate(1395,376)" d="m0 0 4 1-10 7-25 16-14 10-9 8-5 1-8 8 3-1-2 4-3 2h-2l-10 15-4 8-1-3 8-15 8-10 13-13 16-12 22-14z" fill="#D8D8CF"/>
<path transform="translate(916,102)" d="m0 0 1 2-13 21-16 25-14 20-11 16-8 10-9 10-8 10-3 1 2-4 11-13 14-18 13-18 24-36 14-22z" fill="#DCD6D3"/>
<path transform="translate(407,388)" d="m0 0h9l7 6 1 7-6 4h-7l-7-6-1-7z" fill="#DFE4E6"/>
<path transform="translate(176,40)" d="m0 0h7l6 4 3 6-1 8-6 7-4-1-1-3 6-2 2-2-1-8-5-5h-6l-11 7-4 7v5l4 2 4 3 4 2-2 2h-6l-8-11v-6l6-8 7-5z" fill="#608AB5"/>
<path transform="translate(504,460)" d="m0 0h4l-1 4-24 16-10 7-2 4 1 1v5l-4-1-1-10 5-5 15-10 10-7z" fill="#608AB5"/>
<path transform="translate(469,440)" d="m0 0 6 1 5 7 1 3v7l-6 7-15 10-3 1-7-6-4-6 1-2 3 1 5 5 7-1 13-7 4-5-2-3-3-5-6-4z" fill="#608AB5"/>
<path transform="translate(1305,487)" d="m0 0 2 1 6 36 8 37 10 41v3h-2l-11-44-10-49-3-20z" fill="#DBDACF"/>
<path transform="translate(929)" d="m0 0h4l-2 5-4 7 2 4 13 9 13 8v2l-4 1-15-9-10-7-7-4v-2h2l2-4z" fill="#608AB5"/>
<path transform="translate(334,216)" d="m0 0 3 3-5 4-12 8-18 13h-2l3 6-1 3-3-1-4-6 2-4 16-12 17-11z" fill="#628DB8"/>
<path transform="translate(704,330)" d="m0 0m-1 1v3l-17 13-36 27-21 16-16 12-5 2 5-5 13-10 17-13 16-12 21-16 19-14z" fill="#DCD6D3"/>
<path transform="translate(1986)" d="m0 0 3 1 8 12 15 23 12 19 15 23 9 14-1 4-14-23-13-20-12-19-22-33z" fill="#DCD6D3"/>
<path transform="translate(348,266)" d="m0 0 8 4 4 7 1 4-6 8-14 10-4 2h-4l-1-3 15-8 7-6 4-5h-3l-4-8-3-3z" fill="#608AB5"/>
<path transform="translate(292,152)" d="m0 0 4 1-9 7-8 6-19 12-8 4-2-2 10-7 21-14z" fill="#608AB5"/>
<path transform="translate(1962,471)" d="m0 0 4 1-3 1-1 3-27 18-6 5-4 2-3 3 1-5 9-8z" fill="#D6D9CD"/>
<path transform="translate(1776,160)" d="m0 0h2v2l-9 5-19 12-13 8-5 1-6 4 2-4 10-7 16-9 18-11z" fill="#D6D9CD"/>
<path transform="translate(278,168)" d="m0 0 6 1 5 5 1 2v8l-9 8-13 9-4-1v-3l14-8 9-8-2-5-4-5z" fill="#608AB5"/>
<path transform="translate(368,296)" d="m0 0 6 2 7 8 3 4v4l-4 1-2-7-7-7-5-1-1 8 4 10-2 4-7-14 1-7 4-4z" fill="#608AB5"/>
<path transform="translate(908,30)" d="m0 0 5 2 11 7 17 11 2 1v2l-5 1-24-16-7-5z" fill="#608AB5"/>
<path transform="translate(1491,175)" d="m0 0 4 1-5 4-5 3-3-1 4-4zm-11 7h2v3l-3-1zm-3 2h2l-1 4-18 11-11 7-3-1 4-4 19-12z" fill="#D7D3D1"/>
<path transform="translate(205,64)" d="m0 0 2 2-1 4-9 6-10 7-6 4h-5l-1-2 14-9 14-11z" fill="#608AB5"/>
<path transform="translate(1680,197)" d="m0 0h3l-2 4-13 9-15 9-8 4h-2l1-3 16-10z" fill="#D2D7CC"/>
<path transform="translate(856,68)" d="m0 0 1 2-16 24-11 16-13 18-2 3-2-1 1-3 2-1 1-3h2l1-4h2l1-4h2v-3h2v-3h2l1-4h2v-3h2v-3h2l1-4 11-16z" fill="#B6BFCA"/>
<path transform="translate(503,4)" d="m0 0v3l-15 16-7 8-9 10-10 11-8 7-10 9-2-1 16-15 18-18 7-8 11-12 7-8z" fill="#DCD6D3"/>
<path transform="translate(222,90)" d="m0 0h3l-2 4-14 11-11 8-2-4 8-6 9-7z" fill="#608AB5"/>
<path transform="translate(452,447)" d="m0 0 7 1 9 8 1 3-5 2-5-7-6-2-6 4h-2l-1 2 1-5z" fill="#D6D6D6"/>
<path transform="translate(227,620)" d="m0 0 5 1 7 6v1h-23l1-3z" fill="#618AB5"/>
<path transform="translate(233,152)" d="m0 0 3 2 3 8 5 3 8-1 5-1-1 4-6 3h-7l-6-5-7-11z" fill="#608AB5"/>
<path transform="translate(469,506)" d="m0 0 2 1-10 8-18 13-24 16-3 3-3-1 9-7 12-8 20-14z" fill="#DCD6D3"/>
<path transform="translate(251,136)" d="m0 0h8l5 5 5 9-2 4-6-11-3-3-7-1-1 5h-2l-1 2v-2l-3-1 5-6z" fill="#608AB5"/>
<path transform="translate(944)" d="m0 0h8l14 10 2 4-2 1-21-13z" fill="#608AB5"/>
<path transform="translate(1335,417)" d="m0 0 2 1-9 9 3-1-2 4-3 2h-2l-10 15-4 8-1-3 8-15 8-10z" fill="#DBD8D1"/>
<path transform="translate(1288,372)" d="m0 0 2 1-9 10-11 14-8 10h-2l2-4 13-16 9-11z" fill="#DCD6D3"/>
<path transform="translate(348,320)" d="m0 0 4 1 5 5 6 1 6-3 2 1-7 6-5 1-5-3-6-7z" fill="#608AB5"/>
<path transform="translate(1604,103)" d="m0 0 4 1-4 2zm-3 2h2v3l-19 12-3-1 4-4z" fill="#C5C8CD"/>
<path transform="translate(647,373)" d="m0 0m-1 1v3l-21 16-12 9-5 2 5-5 13-10 17-13z" fill="#D9D4D2"/>
<path transform="translate(1877,100)" d="m0 0 4 1-17 9-12 7-2-1 3-1 1-3 20-11z" fill="#BAC7C7"/>
<path transform="translate(742,301)" d="m0 0m-1 1m-1 1v3l-21 16-13 10-2-1 8-7 20-15z" fill="#D8D4D2"/>
<path transform="translate(1441,207)" d="m0 0 4 1h-2v2l-19 12h-2l2-4z" fill="#D5D2D1"/>
<path transform="translate(1322,572)" d="m0 0 2 1 7 29v3h-2l-8-32z" fill="#DADFCC"/>
<path transform="translate(856,68)" d="m0 0 1 2-16 24-5 5 1-4 11-16z" fill="#D6D2D1"/>
<path transform="translate(384,531)" d="m0 0 1 4-11 8h-6l1-3 14-8z" fill="#93D6FB"/>
<path transform="translate(341,311)" d="m0 0h7l3 2v7l-4 1-6-8z" fill="#96DAFF"/>
<path transform="translate(1491,175)" d="m0 0 4 1-5 4-5 3-3-1 4-4zm-11 7h2v3l-3-1zm-3 2h2l-1 4h-3z" fill="#BAC1CB"/>
<path transform="translate(111)" d="m0 0h4l9 11-4 1-8-9z" fill="#608AB5"/>
<path transform="translate(452,447)" d="m0 0 6 1-4 1-1 3-6 4h-2l-1 2 1-5z" fill="#608AB5"/>
<path transform="translate(207,72)" d="m0 0 5 2 4 6-1 4-7-7z" fill="#608AB5"/>
<path transform="translate(2026,297)" d="m0 0h2l7 13v7h-2l-4-13-3-5z" fill="#DAE0CB"/>
<path transform="translate(248,146)" d="m0 0 3 1 4 11-1 2-5-6z" fill="#608AB5"/>
<path transform="translate(451,452)" d="m0 0 2 1-3 3-2 7h-3l-1-5 3-3z" fill="#D9D7D6"/>
<path transform="translate(1623,91)" d="m0 0 4 1-4 3-3-1zm-5 3h2v3l-3-1zm-3 2h2v3l-3-1zm-3 2h2l-1 3h-2z" fill="#B0BBC8"/>
<path transform="translate(281,623)" d="m0 0 5 1 2 4h-9z" fill="#D4D7D8"/>
<path transform="translate(227,623)" d="m0 0 4 1 1 3-1 1h-8v-3z" fill="#91D2F8"/>
<path transform="translate(624,391)" d="m0 0 2 1-13 10-5 2 5-5z" fill="#D1CFD0"/>
<path transform="translate(1604,103)" d="m0 0 4 1-4 2zm-3 2h2v3l-6 4h-2l2-4z" fill="#BDC3CB"/>
<path transform="translate(1337,417)" d="m0 0h2l-2 4-9 8v-3z" fill="#D7EEC1"/>
<path transform="translate(1877,100)" d="m0 0 4 1-13 6-2-2z" fill="#D2D7CC"/>
<path transform="translate(1441,207)" d="m0 0 4 1h-2v2l-6 4h-3l2-4z" fill="#AEBAC8"/>
<path transform="translate(1502,168)" d="m0 0 4 1h-2l-1 3-5 3h-3l1-3z" fill="#ACB9C7"/>
<path transform="translate(1532,149)" d="m0 0 4 1-4 3-3-1zm-5 3h2l-1 4h-3z" fill="#AFBAC8"/>
<path transform="translate(1288,372)" d="m0 0 2 1-9 10-2-1z" fill="#D7D3D1"/>
<path transform="translate(172,51)" d="m0 0 6 3 2 7-4-2-4-6z" fill="#608AB5"/>
<path transform="translate(1483,180)" d="m0 0 3 2h-4zm-3 2h2v3l-3-1zm-3 2h2l-1 4h-3z" fill="#B5BEC9"/>
<path transform="translate(895,20)" d="m0 0 4 1-1 4h-6l2-4z" fill="#608AB5"/>
</svg>
