<!DOCTYPE svg PUBLIC "-//W3C//DTD SVG 1.1//EN" "http://www.w3.org/Graphics/SVG/1.1/DTD/svg11.dtd">
<!-- Uploaded to: SVG Repo, www.svgrepo.com, Transformed by: SVG Repo Mixer Tools -->
<svg width="256px" height="256px" viewBox="-0.72 -0.72 25.44 25.44" fill="none" xmlns="http://www.w3.org/2000/svg">
<g id="SVGRepo_bgCarrier" stroke-width="0"/>
<g id="SVGRepo_tracerCarrier" stroke-linecap="round" stroke-linejoin="round"/>
<g id="SVGRepo_iconCarrier"> <path fill-rule="evenodd" clip-rule="evenodd" d="M12 3C10.3431 3 9 4.34315 9 6V11.5001C9 11.8146 8.8476 12.1061 8.61612 12.319C7.62259 13.2328 7 14.5437 7 16C7 18.7614 9.23858 21 12 21C14.7614 21 17 18.7614 17 16C17 14.5437 16.3774 13.2328 15.3839 12.319C15.1524 12.1061 15 11.8146 15 11.5001V6C15 4.34315 13.6569 3 12 3ZM14 16C14 17.1046 13.1046 18 12 18C10.8954 18 10 17.1046 10 16C10 15.2597 10.4022 14.6134 11 14.2676V6C11 5.44772 11.4477 5 12 5C12.5523 5 13 5.44772 13 6V14.2676C13.5978 14.6134 14 15.2597 14 16Z" fill="#5D7285"/> </g>
</svg>